<?xml version="1.0" standalone="no"?>
<!DOCTYPE svg PUBLIC "-//W3C//DTD SVG 20010904//EN"
 "http://www.w3.org/TR/2001/REC-SVG-20010904/DTD/svg10.dtd">
<svg version="1.0" xmlns="http://www.w3.org/2000/svg"
 width="736.000000pt" height="906.000000pt" viewBox="0 0 736.000000 906.000000"
 preserveAspectRatio="xMidYMid meet">

<g transform="translate(0.000000,906.000000) scale(0.100000,-0.100000)"
fill="#000000" stroke="none">
<path d="M3095 8793 c-84 -15 -133 -39 -242 -119 -32 -24 -84 -62 -116 -86
-70 -51 -196 -180 -256 -261 -63 -85 -73 -81 -183 71 -49 67 -96 122 -105 122
-23 0 -312 -151 -428 -223 -74 -46 -104 -72 -117 -97 -9 -19 -25 -53 -36 -75
-22 -47 -44 -54 -89 -30 l-32 18 -93 -75 c-116 -93 -315 -275 -328 -298 -6
-12 -4 -36 7 -74 26 -91 2 -116 -108 -116 -43 0 -87 -15 -103 -34 -70 -85
-211 -282 -271 -377 l-76 -120 50 -82 c27 -45 59 -103 71 -128 21 -43 22 -48
7 -69 -14 -21 -132 -109 -307 -230 -63 -44 -83 -64 -98 -100 -21 -46 -64 -182
-60 -184 2 -1 19 -8 38 -17 19 -9 51 -22 70 -29 156 -55 293 -153 396 -284 30
-37 54 -76 54 -86 0 -11 -30 -44 -72 -78 -79 -64 -286 -273 -332 -334 -16 -21
-26 -44 -23 -52 3 -8 24 -20 47 -26 23 -6 129 -40 237 -76 108 -35 201 -64
207 -64 6 0 24 -11 40 -23 l29 -24 -56 -221 c-56 -217 -66 -275 -48 -286 5 -3
62 3 126 14 186 32 312 24 336 -21 6 -12 16 -82 21 -157 6 -76 15 -142 20
-148 14 -19 130 18 171 54 20 18 23 75 3 91 -14 12 -89 136 -124 206 -63 124
-134 326 -167 470 -78 352 -96 507 -96 822 0 169 5 223 21 223 20 0 25 -37 31
-245 4 -158 12 -252 27 -335 12 -63 31 -171 43 -240 42 -243 129 -522 217
-695 56 -109 170 -275 197 -285 13 -5 27 -15 32 -23 20 -33 204 -130 285 -151
15 -3 43 -20 63 -37 30 -27 35 -37 35 -76 0 -25 -8 -58 -17 -74 -18 -29 -84
-69 -116 -69 -15 0 -246 -76 -627 -206 -118 -40 -165 -67 -179 -104 -6 -14
-27 -86 -47 -160 -20 -74 -51 -184 -70 -245 -104 -344 -105 -346 -90 -367 42
-60 250 -278 354 -372 596 -536 1284 -845 2087 -938 143 -16 607 -16 750 0
469 54 863 171 1270 377 705 356 1254 905 1610 1610 136 268 219 493 290 780
35 142 37 156 31 255 -12 182 -22 274 -34 303 -26 62 -75 157 -83 163 -5 3 -9
15 -9 26 0 53 -218 402 -349 560 -154 184 -201 223 -316 262 -44 15 -125 54
-180 86 -210 121 -367 160 -670 165 -240 5 -362 -10 -591 -70 -120 -31 -323
-111 -393 -153 -177 -108 -289 -212 -484 -446 -173 -208 -270 -363 -292 -464
-3 -18 -8 -81 -9 -140 -3 -103 -6 -114 -66 -282 -79 -222 -90 -279 -67 -363
16 -63 89 -207 153 -304 49 -75 47 -111 -10 -159 -163 -136 -108 -409 97 -489
73 -28 133 -31 130 -5 -1 8 -20 66 -43 129 -22 62 -40 117 -40 122 0 5 8 9 19
9 21 0 60 -67 115 -202 39 -95 146 -251 244 -358 67 -74 385 -294 437 -303 17
-3 64 -19 105 -37 184 -78 300 -102 595 -124 144 -11 150 -12 153 -33 3 -18
-2 -23 -20 -24 -71 -3 -269 2 -308 7 -71 9 -201 32 -245 42 -137 33 -288 77
-334 98 -98 44 -124 31 -197 -102 -108 -194 -184 -385 -209 -529 -8 -49 -30
-92 -53 -103 -9 -5 -48 -13 -85 -17 -63 -6 -71 -5 -93 16 -28 26 -47 80 -74
213 -20 100 -68 281 -114 436 -14 47 -42 144 -62 215 -48 175 -147 522 -191
670 -19 66 -43 148 -53 182 -32 114 -91 173 -172 173 -35 0 -101 18 -388 106
-96 29 -195 56 -220 60 -31 4 -55 16 -77 37 -31 29 -33 34 -33 104 0 65 3 77
24 98 13 13 43 29 67 35 99 27 211 105 282 196 84 108 107 127 177 145 95 26
240 79 240 89 0 4 -38 59 -85 121 -49 65 -85 123 -85 136 0 15 11 30 30 42 30
18 147 45 247 57 75 9 78 17 42 115 -80 216 -83 230 -68 257 10 19 36 33 99
54 188 63 366 148 376 181 3 10 4 20 2 21 -17 12 -169 102 -228 135 -92 52
-139 85 -209 148 -75 67 -67 78 86 128 155 50 414 157 483 199 30 19 73 44 95
56 49 27 125 88 125 100 0 9 -146 82 -190 95 -14 4 -70 27 -125 50 -55 24
-143 60 -195 81 -52 20 -101 42 -108 49 -11 10 16 41 143 166 188 184 168 166
230 211 66 48 195 182 195 202 0 10 -8 16 -21 16 -11 0 -55 9 -97 19 -43 11
-113 22 -157 26 -83 6 -357 49 -432 67 -57 14 -56 33 5 130 42 68 130 217 187
318 11 19 28 46 36 60 9 14 46 77 83 140 37 63 73 123 79 132 20 30 -5 44 -45
26 -18 -9 -109 -43 -203 -76 -93 -34 -195 -71 -225 -82 -130 -50 -227 -80
-250 -78 -42 5 -48 25 -101 338 -15 89 -19 163 -19 333 l0 217 -27 -1 c-16 -1
-64 -8 -108 -16z m-1240 -1914 c128 -31 259 -132 305 -237 33 -73 52 -168 45
-222 -20 -156 -43 -181 -142 -156 -32 8 -113 20 -180 27 -132 13 -286 3 -403
-27 -53 -13 -62 -13 -88 0 -59 30 -83 195 -45 311 36 112 137 224 249 277 100
47 155 53 259 27z m1043 -188 c113 -24 269 -98 327 -156 65 -65 77 -137 38
-236 -21 -54 -47 -62 -130 -40 -163 44 -381 70 -585 71 -124 0 -138 10 -139
103 -3 172 29 236 131 265 61 18 256 14 358 -7z m2416 -2043 c139 -159 181
-386 107 -579 -63 -164 -197 -278 -400 -339 -98 -30 -235 -24 -328 13 -95 39
-207 113 -265 175 -121 133 -177 370 -100 427 23 17 50 21 197 27 184 7 304
28 462 78 149 48 198 88 224 185 22 81 41 84 103 13z m592 15 c23 -108 85
-162 244 -212 144 -45 323 -73 495 -77 192 -4 192 -4 200 -53 16 -98 -24 -250
-89 -339 -62 -83 -119 -129 -222 -179 -106 -50 -166 -64 -284 -64 -145 0 -269
54 -398 176 -216 203 -227 490 -28 720 53 61 73 68 82 28z m-2951 -876 c86
-122 155 -234 229 -373 80 -148 209 -417 239 -499 8 -22 34 -87 56 -143 64
-159 55 -227 -41 -307 -18 -15 -87 -79 -152 -141 l-120 -113 45 -53 c53 -65
188 -188 246 -226 53 -33 71 -67 43 -82 -26 -14 -23 -15 -82 36 -85 75 -106
93 -176 152 -97 81 -149 134 -156 158 -6 18 22 49 168 190 97 92 179 179 184
194 25 71 -37 234 -264 695 -112 226 -163 322 -200 372 -13 17 -24 34 -24 37
0 4 -16 30 -35 60 -36 54 -39 86 -6 86 9 -1 29 -20 46 -43z"/>
</g>
</svg>
